<svg width="103" height="239" viewBox="0 0 103 239" fill="none" xmlns="http://www.w3.org/2000/svg">
<path d="M94 79.048L89.536 104.392H49.504L47.056 118.504H75.856L71.536 142.552H42.736L35.968 181H4L22 79.048H94Z" fill="white"/>
<path fill-rule="evenodd" clip-rule="evenodd" d="M103 70H91.25L95.1667 60.6667H99.0833L103 70ZM52.1773 55.8662L87.3333 41.6329V60.6667C83.3892 67.0164 65.3726 70 54.0417 70C41.6062 70 25.1014 66.9076 20.75 60.6667V40.0898L52.1773 55.8662ZM99.0833 57.5556H95.1667V34.9689L52.3849 52.2916L9 30.5138L56 14L99.0833 33.3853V57.5556Z" fill="white"/>
</svg>
